<?xml version="1.0" encoding="UTF-8"?>
<svg id="_圖層_1" data-name="圖層 1" xmlns="http://www.w3.org/2000/svg" viewBox="0 0 346.27 318.84">
  <path d="M346.27,318.84l-33.93-.02-5.54-39.42,5.77-36.24-14.01-24.09-16.5-120.86-100.83,204.12c-1.48,3-4.54,4.9-7.88,4.9h0c-3.34,0-6.39-1.89-7.87-4.88L63.37,96.54l-15.71,116-15.66,27.9,6.89,36.84-5.6,41.55H0S42.95,5.1,42.95,5.1C43.35,2.18,45.85,0,48.8,0h0c2.24,0,4.29,1.27,5.29,3.28l113.44,228.84c2.38,4.81,9.24,4.8,11.61-.02L291.76,3.3C292.75,1.28,294.8,0,297.05,0h0c2.95,0,5.44,2.17,5.85,5.09l43.36,313.74Z"/>
  <g>
    <rect x="152.7" y="135.47" width="42.51" height="17.71" rx="8.85" ry="8.85" transform="translate(349.42 286.81) rotate(179.39)"/>
    <path d="M174.4,207.33c-34.8.25-63.2-27.76-63.45-62.56-.25-34.8,27.76-63.2,62.56-63.45,34.8-.25,63.2,27.76,63.45,62.56.25,34.8-27.76,63.2-62.56,63.45ZM217.24,144.02c-.17-23.91-19.69-43.16-43.6-42.99-23.91.17-43.16,19.69-42.99,43.6.17,23.91,19.69,43.16,43.6,42.99,23.91-.17,43.16-19.69,42.99-43.6Z"/>
  </g>
  <g>
    <rect x="63.23" y="246.98" width="42.51" height="17.71" rx="8.85" ry="8.85" transform="translate(339.13 167.83) rotate(89.21)"/>
    <path d="M147.49,255.19c.36,34.79-27.56,63.29-62.36,63.65s-63.29-27.56-63.65-62.36c-.36-34.79,27.56-63.29,62.36-63.65,34.79-.36,63.29,27.56,63.65,62.36ZM84.04,212.54c-23.91.25-43.09,19.83-42.85,43.73.25,23.91,19.83,43.09,43.73,42.85,23.91-.25,43.09-19.83,42.85-43.73-.25-23.91-19.83-43.09-43.73-42.85Z"/>
  </g>
  <g>
    <rect x="240.85" y="246.98" width="42.51" height="17.71" rx="8.85" ry="8.85" transform="translate(13.59 524.89) rotate(-91.58)"/>
    <path d="M199.12,257.35c-.84-34.79,26.69-63.66,61.47-64.5,34.79-.84,63.66,26.69,64.5,61.47.84,34.79-26.69,63.66-61.47,64.5-34.79.84-63.66-26.69-64.5-61.47ZM263.15,299.11c23.9-.57,42.81-20.42,42.24-44.32-.57-23.9-20.42-42.81-44.32-42.24-23.9.57-42.81,20.42-42.24,44.32.57,23.9,20.42,42.81,44.32,42.24Z"/>
  </g>
</svg>